<?xml version="1.0" standalone="no"?>
<!DOCTYPE svg PUBLIC "-//W3C//DTD SVG 20010904//EN"
 "http://www.w3.org/TR/2001/REC-SVG-20010904/DTD/svg10.dtd">
<svg version="1.0" xmlns="http://www.w3.org/2000/svg"
 width="589.000000pt" height="589.000000pt" viewBox="0 0 589.000000 589.000000"
 preserveAspectRatio="xMidYMid meet">
<metadata>
Created by potrace 1.11, written by Peter Selinger 2001-2013
</metadata>
<g transform="translate(0.000000,589.000000) scale(0.100000,-0.100000)"
fill="#000000" stroke="none">
<path d="M2758 5886 c-1 -2 -43 -6 -91 -10 -49 -3 -92 -8 -95 -10 -4 -2 -36
-7 -71 -10 -36 -4 -68 -9 -71 -11 -4 -2 -25 -7 -46 -9 -114 -15 -396 -99 -562
-167 -364 -152 -677 -361 -957 -643 -142 -142 -170 -175 -279 -321 -144 -193
-259 -394 -369 -645 -73 -167 -156 -479 -191 -720 -27 -180 -28 -629 -2 -760
3 -14 7 -43 10 -65 12 -98 28 -178 63 -315 10 -36 18 -67 18 -70 5 -27 39
-128 47 -137 6 -7 8 -13 5 -13 -5 0 62 -179 81 -217 5 -10 31 -63 58 -118 51
-106 144 -267 203 -350 19 -27 44 -64 55 -80 28 -40 140 -179 191 -234 402
-443 918 -752 1485 -889 69 -17 141 -33 160 -36 19 -3 44 -7 55 -10 11 -2 40
-7 65 -10 25 -3 55 -8 68 -10 115 -23 575 -24 691 -1 11 2 46 6 77 10 32 3 60
8 63 9 3 2 29 7 56 10 28 4 111 22 185 41 303 76 574 192 833 354 472 296 836
696 1083 1191 235 471 332 962 300 1509 -4 69 -9 127 -11 130 -1 3 -6 37 -10
75 -3 38 -8 72 -10 76 -2 3 -6 26 -10 50 -3 25 -11 63 -17 85 -5 22 -12 51
-15 65 -16 88 -84 299 -146 451 -91 222 -273 530 -412 698 -174 210 -334 366
-521 508 -157 119 -351 240 -488 303 -36 16 -96 44 -132 61 -56 25 -295 112
-344 124 -90 23 -189 47 -205 51 -49 10 -196 34 -241 40 -27 3 -60 7 -74 10
-27 6 -476 14 -482 10z"/>
</g>
</svg>
